<svg width="14" height="13" viewBox="0 0 14 13" fill="none" xmlns="http://www.w3.org/2000/svg">
<path d="M5.95246 0.870735L6.64613 0.209869C6.93985 -0.0699565 7.4148 -0.0699565 7.70539 0.209869L13.7797 5.99393C14.0734 6.27376 14.0734 6.72624 13.7797 7.00309L7.70539 12.7901C7.41167 13.07 6.93673 13.07 6.64613 12.7901L5.95246 12.1293C5.65562 11.8465 5.66187 11.385 5.96496 11.1082L9.73016 7.69075H0.749916C0.334338 7.69075 0 7.37222 0 6.9763V6.0237C0 5.62778 0.334338 5.30925 0.749916 5.30925H9.73016L5.96496 1.8918C5.65874 1.61495 5.65249 1.15354 5.95246 0.870735Z" fill="#F1F1F1"/>
</svg>
