<svg width="13" height="19" viewBox="0 0 13 19" fill="none" xmlns="http://www.w3.org/2000/svg">
<path d="M12.0778 6.86531H11.7482V5.31498C11.7482 2.44753 9.48425 0.0521806 6.65457 0.0010478C6.57725 -0.000349268 6.42275 -0.000349268 6.34547 0.0010478C3.51571 0.0521806 1.25178 2.44753 1.25178 5.31498V6.86531H0.922182C0.414284 6.86531 0 7.39207 0 8.04265V15.8185C0 16.4683 0.414284 17 0.922217 17H12.0778C12.5857 17 13 16.4683 13 15.8185V8.04265C13 7.39211 12.5857 6.86531 12.0778 6.86531ZM7.54513 11.9227V14.2722C7.54513 14.5413 7.32103 14.7689 7.05314 14.7689H5.94693C5.67901 14.7689 5.45491 14.5413 5.45491 14.2722V11.9227C5.19509 11.6656 5.04382 11.3102 5.04382 10.9169C5.04382 10.1718 5.61688 9.53154 6.3455 9.50196C6.42272 9.49882 6.57739 9.49882 6.6546 9.50196C7.38323 9.53154 7.95628 10.1718 7.95628 10.9169C7.95621 11.3102 7.80495 11.6656 7.54513 11.9227ZM9.57603 6.86531H3.42401V5.31498C3.42401 3.60689 4.80509 2.19455 6.5 2.19455C8.19491 2.19455 9.57606 3.60689 9.57606 5.31498L9.57603 6.86531Z" fill="#F1F1F1"/>
</svg>
