<svg width="56" height="56" viewBox="0 0 56 56" fill="none" xmlns="http://www.w3.org/2000/svg">
<circle cx="28" cy="28" r="28" fill="#CFD5D5"/>
<path d="M47 17.5495C45.5777 18.1624 44.0689 18.5646 42.5239 18.7427C44.1339 17.8056 45.3663 16.3194 45.9504 14.5539C44.4402 15.4216 42.7732 16.0517 40.997 16.3933C39.5747 14.9186 37.5516 14 35.3076 14C31.0025 14 27.5119 17.3926 27.5119 21.5744C27.5119 22.1675 27.5808 22.7468 27.7138 23.3007C21.236 22.9845 15.492 19.9681 11.6476 15.3847C10.9756 16.5017 10.5933 17.8033 10.5933 19.1927C10.5933 21.8214 11.9705 24.1408 14.0602 25.4978C12.8222 25.4579 11.6117 25.132 10.5292 24.5469V24.6415C10.5292 28.311 13.2172 31.3736 16.7814 32.0706C16.1284 32.2414 15.4398 32.336 14.7274 32.336C14.224 32.336 13.7372 32.2875 13.2599 32.1952C14.2525 35.207 17.1305 37.3971 20.5403 37.4572C17.8737 39.4881 14.5113 40.6951 10.8593 40.6951C10.23 40.6951 9.61024 40.6582 9 40.5913C12.4502 42.7445 16.5464 44 20.9488 44C35.2887 44 43.1272 32.456 43.1272 22.4445L43.101 21.4637C44.6326 20.402 45.9575 19.0681 47 17.5495Z" fill="#434747"/>
</svg>
