<svg width="83" height="45" viewBox="0 0 83 45" fill="none" xmlns="http://www.w3.org/2000/svg">
<g clip-path="url(#clip0)">
<path d="M4.24912 33.0895H0V11.645H4.24912V20.2288H12.7325V11.645H16.9816V33.0895H12.7325V24.5207H4.24912V33.0895Z" fill="#00CACA"/>
<path d="M30.0359 34.2788C30.0359 34.9124 29.9219 35.5104 29.6937 36.0729C29.4656 36.6281 29.1536 37.1158 28.7576 37.5358C28.3684 37.9487 27.9121 38.2761 27.3886 38.5183C26.8651 38.7602 26.3048 38.8813 25.7076 38.8813H24.258C24.0567 38.8813 23.8688 38.9205 23.6943 38.9988C23.5198 39.077 23.3655 39.1875 23.2314 39.3298C23.1039 39.4651 23.0031 39.6252 22.9294 39.8103C22.8554 39.9954 22.8186 40.1948 22.8186 40.4083V41.9354H29.6433V45.0002H19.9297V40.4083C19.9297 39.7747 20.0437 39.1803 20.2719 38.625C20.5 38.0626 20.8088 37.5749 21.198 37.162C21.5939 36.742 22.0535 36.4145 22.577 36.1796C23.1005 35.9376 23.6608 35.8165 24.258 35.8165H25.7076C25.9089 35.8165 26.0968 35.7773 26.2713 35.6991C26.4458 35.6208 26.5967 35.514 26.7242 35.3787C26.8585 35.2364 26.9625 35.0726 27.0362 34.8875C27.1102 34.6952 27.147 34.4923 27.147 34.2788C27.147 34.0652 27.1102 33.8659 27.0362 33.6808C26.9625 33.4957 26.8585 33.3355 26.7242 33.2003C26.5967 33.0578 26.4458 32.9475 26.2713 32.8692C26.0968 32.7908 25.9089 32.7518 25.7076 32.7518H20.5537V29.687H25.7076C26.3048 29.687 26.8651 29.8079 27.3886 30.0501C27.9121 30.292 28.3684 30.623 28.7576 31.0431C29.1536 31.4561 29.4656 31.9401 29.6937 32.4954C29.9219 33.0508 30.0359 33.6452 30.0359 34.2788Z" fill="#00CACA"/>
<path d="M51.1225 22.4566C51.1225 23.4735 50.9893 24.4555 50.7228 25.4026C50.466 26.3398 50.1008 27.2221 49.6272 28.0496C49.1533 28.8671 48.5809 29.6147 47.9098 30.2926C47.2385 30.9706 46.4983 31.5539 45.6889 32.0424C44.8795 32.5208 44.0061 32.8897 43.0683 33.149C42.1308 33.4182 41.1585 33.5528 40.1518 33.5528C39.145 33.5528 38.1728 33.4182 37.2351 33.149C36.3074 32.8897 35.4338 32.5208 34.6146 32.0424C33.8052 31.5539 33.0651 30.9706 32.3938 30.2926C31.7227 29.6147 31.1452 28.8671 30.6616 28.0496C30.1877 27.2221 29.8177 26.3398 29.5512 25.4026C29.2946 24.4555 29.1663 23.4735 29.1663 22.4566C29.1663 21.4397 29.2946 20.4577 29.5512 19.5106C29.8177 18.5635 30.1877 17.6812 30.6616 16.8637C31.1452 16.0462 31.7227 15.2985 32.3938 14.6206C33.0651 13.9426 33.8052 13.3644 34.6146 12.8859C35.4338 12.4073 36.3074 12.0385 37.2351 11.7793C38.1728 11.5101 39.145 11.3755 40.1518 11.3755C41.1585 11.3755 42.1308 11.5101 43.0683 11.7793C44.0061 12.0385 44.8795 12.4073 45.6889 12.8859C46.4983 13.3644 47.2385 13.9426 47.9098 14.6206C48.5809 15.2985 49.1533 16.0462 49.6272 16.8637C50.1008 17.6812 50.466 18.5635 50.7228 19.5106C50.9893 20.4577 51.1225 21.4397 51.1225 22.4566ZM46.903 22.4566C46.903 21.5195 46.7253 20.6372 46.37 19.8097C46.0147 18.9723 45.5309 18.2495 44.9191 17.6413C44.3169 17.0232 43.6013 16.5347 42.7722 16.1758C41.953 15.8169 41.0796 15.6375 40.1518 15.6375C39.214 15.6375 38.3357 15.8169 37.5164 16.1758C36.6972 16.5347 35.9816 17.0232 35.3696 17.6413C34.7577 18.2495 34.274 18.9723 33.9188 19.8097C33.5635 20.6372 33.3858 21.5195 33.3858 22.4566C33.3858 23.3938 33.5635 24.2761 33.9188 25.1035C34.274 25.921 34.7577 26.6389 35.3696 27.257C35.9816 27.875 36.6972 28.3637 37.5164 28.7225C38.3357 29.0813 39.214 29.2608 40.1518 29.2608C41.0796 29.2608 41.953 29.0813 42.7722 28.7225C43.6013 28.3637 44.3169 27.875 44.9191 27.257C45.5309 26.6389 46.0147 25.921 46.37 25.1035C46.7253 24.2761 46.903 23.3938 46.903 22.4566Z" fill="#00CACA"/>
<path opacity="0.54" d="M56.7651 31.5641C56.7651 31.9231 56.7009 32.262 56.5726 32.581C56.4444 32.89 56.2667 33.1592 56.0396 33.3886C55.8127 33.6177 55.5462 33.7973 55.2401 33.9269C54.9342 34.0664 54.6036 34.1362 54.2481 34.1362C53.9028 34.1362 53.5721 34.0664 53.2563 33.9269C52.9502 33.7973 52.6788 33.6177 52.442 33.3886C52.2149 33.1592 52.0323 32.89 51.8942 32.581C51.7658 32.262 51.7017 31.9231 51.7017 31.5641C51.7017 31.2151 51.7658 30.8862 51.8942 30.5771C52.0323 30.2681 52.2149 29.9989 52.442 29.7695C52.6788 29.5404 52.9502 29.3608 53.2563 29.2312C53.5721 29.0917 53.9028 29.0219 54.2481 29.0219C54.6036 29.0219 54.9342 29.0917 55.2401 29.2312C55.5462 29.3608 55.8127 29.5404 56.0396 29.7695C56.2667 29.9989 56.4444 30.2681 56.5726 30.5771C56.7009 30.8862 56.7651 31.2151 56.7651 31.5641ZM75.1384 33.0894H74.1612L72.5919 30.8911C72.207 31.2401 71.7974 31.569 71.3631 31.8782C70.9386 32.1773 70.4895 32.4414 70.0158 32.6707C69.542 32.89 69.0535 33.0646 68.5501 33.1941C68.0566 33.3237 67.5532 33.3886 67.04 33.3886C65.9247 33.3886 64.8735 33.1992 63.8864 32.8203C62.9092 32.4414 62.0506 31.8931 61.3103 31.1753C60.5799 30.4476 60.0026 29.5603 59.5781 28.5133C59.1538 27.4666 58.9415 26.2753 58.9415 24.9393C58.9415 23.6932 59.1538 22.5516 59.5781 21.5148C60.0026 20.468 60.5799 19.5708 61.3103 18.823C62.0506 18.0753 62.9092 17.4971 63.8864 17.0883C64.8735 16.6696 65.9247 16.4603 67.04 16.4603C67.5532 16.4603 68.0615 16.5251 68.565 16.6547C69.0683 16.7843 69.5568 16.9637 70.0306 17.193C70.5043 17.4223 70.9534 17.6915 71.3779 18.0006C71.8122 18.3096 72.2168 18.6436 72.5919 19.0025L74.1612 17.1033H75.1384V33.0894ZM71.067 24.9393C71.067 24.3811 70.9585 23.8427 70.7413 23.3243C70.534 22.7959 70.2478 22.3323 69.8826 21.9335C69.5174 21.5248 69.088 21.2008 68.5944 20.9615C68.1108 20.7123 67.5927 20.5876 67.04 20.5876C66.4873 20.5876 65.9641 20.6824 65.4707 20.8718C64.9869 21.0612 64.5626 21.3404 64.1974 21.7092C63.8421 22.0781 63.5608 22.5367 63.3534 23.085C63.1462 23.6234 63.0426 24.2415 63.0426 24.9393C63.0426 25.6372 63.1462 26.2603 63.3534 26.8086C63.5608 27.347 63.8421 27.8006 64.1974 28.1695C64.5626 28.5384 64.9869 28.8176 65.4707 29.0069C65.9641 29.1963 66.4873 29.2911 67.04 29.2911C67.5927 29.2911 68.1108 29.1715 68.5944 28.9321C69.088 28.683 69.5174 28.3589 69.8826 27.9602C70.2478 27.5513 70.534 27.0879 70.7413 26.5694C70.9585 26.041 71.067 25.4976 71.067 24.9393ZM83 12.7217C83 13.1005 82.9261 13.4544 82.778 13.7834C82.6397 14.1124 82.4473 14.4015 82.2006 14.6508C81.9538 14.8901 81.6627 15.0845 81.327 15.234C81.0014 15.3736 80.651 15.4434 80.2758 15.4434C79.9009 15.4434 79.5454 15.3736 79.2099 15.234C78.8841 15.0845 78.5979 14.8901 78.3511 14.6508C78.1143 14.4015 77.9219 14.1124 77.7738 13.7834C77.6355 13.4544 77.5665 13.1005 77.5665 12.7217C77.5665 12.3528 77.6355 12.0039 77.7738 11.6749C77.9219 11.3359 78.1143 11.0468 78.3511 10.8075C78.5979 10.5583 78.8841 10.3639 79.2099 10.2243C79.5454 10.0748 79.9009 10 80.2758 10C80.651 10 81.0014 10.0748 81.327 10.2243C81.6627 10.3639 81.9538 10.5583 82.2006 10.8075C82.4473 11.0468 82.6397 11.3359 82.778 11.6749C82.9261 12.0039 83 12.3528 83 12.7217ZM82.3042 33.0894H78.2327V17.0734H82.3042V33.0894Z" fill="#00A9A9"/>
</g>
<defs>
<clipPath id="clip0">
<rect width="83" height="45" fill="white"/>
</clipPath>
</defs>
</svg>
